<?xml version="1.0" encoding="UTF-8" standalone="no"?><!DOCTYPE svg PUBLIC "-//W3C//DTD SVG 1.1//EN" "http://www.w3.org/Graphics/SVG/1.1/DTD/svg11.dtd"><svg width="100%" height="100%" viewBox="0 0 51 69" version="1.1" xmlns="http://www.w3.org/2000/svg" xmlns:xlink="http://www.w3.org/1999/xlink" xml:space="preserve" style="fill-rule:evenodd;clip-rule:evenodd;stroke-linejoin:round;stroke-miterlimit:1.41421;"><path d="M0.654,51.309l-0.067,-11.625l0.134,0l-0.134,0l0.201,-11.559l-0.067,-9.072l0.135,0l-0.135,0l0,-10.483l0.135,0l-0.135,0l0.202,-7.325l0.134,0l0,-0.067l9.811,0l17.136,-0.202l0,0.068l11.088,3.494l-0.067,0.067l0.067,-0.067l5.981,2.486l0,0.068l0.067,0l4.772,11.222l-0.068,0.067l0.068,0l-1.479,8.535l-0.067,-0.068l0.067,0.135l-6.249,6.585l4.838,3.831l-0.067,0.067l0.134,0l2.554,6.384l-0.135,0l0.135,0l0.47,11.155l-0.067,0l0.067,0.067l-6.317,8.938l-0.067,-0.067l0.067,0.067l-10.483,3.562l0,0.067l-18.278,0.537l-14.045,-0.268l0,-0.135l-0.134,0l-0.068,-6.518l-0.134,-9.946l0.134,0l-0.134,0l0,0Zm44.621,-13.104l-0.538,-0.672l-7.257,-0.269l4.704,2.487l3.091,-1.546Zm-0.202,-0.672l0.403,0.605l1.076,-0.538l-1.479,-0.067Zm-43.949,-10.617l1.479,6.115l7.123,0.739l-8.602,-6.854Zm1.21,6.048l-1.277,-5.376l0,5.241l1.277,0.135Zm37.162,1.814l-1.949,-0.739l-1.143,0.067l0.672,2.822l2.42,-2.15Zm-1.412,-0.806l1.546,0.604l0.874,-0.739l-2.42,0.135Zm-20.966,7.459l0.538,11.961l13.641,-0.336l2.554,-9.004l-8.4,-2.554l-8.333,-0.067Zm16.733,-23.319l-1.68,-0.672l1.344,4.503l0.336,-3.831Zm-1.479,-0.806l1.479,0.538l0.067,-1.076l-1.546,0.538Zm12.567,5.107l-7.527,-2.957l-3.561,3.024l11.088,-0.067Zm-7.325,-3.091l7.056,2.755l-5.645,-3.965l-1.411,1.21Zm-11.626,21.37l4.503,-4.301l-0.739,-1.747l-3.764,6.048Zm4.637,-4.1l-4.704,4.503l5.712,-2.151l-1.008,-2.352Zm3.293,-3.427l-0.067,-0.067l-3.293,1.142l2.352,-0.134l1.008,-0.941Zm-3.965,1.075l3.763,-1.344l-2.352,-3.225l-1.411,4.569Zm0,0.404l0.739,1.612l1.008,-1.008l-1.747,-0.604Zm0.336,-0.135l1.613,0.605l0.739,-0.806l-2.352,0.201Zm2.755,-0.201l-0.94,0.873l2.15,0.807l0.067,-1.748l-1.277,0.068Zm1.546,-0.068l-0.134,1.815l2.217,0.806l-1.949,-2.688l-0.134,0.067Zm-0.269,-0.201l0.067,-0.336l-0.336,-0.403l-0.806,0.806l1.075,-0.067Zm-0.134,-0.874l0.201,0.202l0,-0.336l-0.201,0.134Zm-0.202,-0.336l0.336,-0.134l-2.822,-3.293l0,0.067l2.486,3.36Zm-2.688,-3.629l-0.134,-0.201l0.134,0.201Zm-0.067,0.269l-1.68,-2.285l0.269,6.653l1.411,-4.368Zm-5.846,11.76l4.032,-6.518l-11.962,6.451l7.93,0.067Zm6.384,-2.083l-5.981,2.218l7.997,2.486l-2.016,-4.704Zm0.201,-0.067l1.949,4.435l0.202,-5.242l-2.151,0.807Zm-0.134,-0.202l2.352,-0.806l0.067,-1.882l-2.352,-0.873l-1.142,1.142l1.075,2.419Zm2.621,-2.553l-0.068,1.612l2.285,-0.806l-2.217,-0.806Zm1.545,-0.74l-0.806,-1.411l-0.202,0l1.008,1.411Zm-0.537,-1.411l1.276,2.218l-0.537,-2.285l-0.739,0.067Zm-0.672,-0.201l0.268,0l-0.47,-0.874l0,0.538l0.202,0.336Zm-3.226,-4.839l2.822,3.293l-0.873,-9.341l-1.949,6.048Zm2.15,-6.854l3.428,-2.89l-3.092,-1.209l-0.336,4.099Zm-2.352,6.653l1.949,-5.981l-3.763,3.83l1.814,2.151Zm-2.083,-2.016l-11.693,0l12.029,7.324l-0.336,-7.324Zm0.269,7.526l-12.298,-7.459l-0.134,14.112l12.432,-6.653Zm4.838,3.763l-0.268,5.242l2.688,-6.115l-2.42,0.873Zm1.949,-4.301l0.739,-0.067l-0.806,-0.336l0.067,0.403Zm-0.201,0l-0.135,-0.47l-1.209,-0.47l0.537,1.008l0.807,-0.068Zm-2.285,-9.811l0.739,8.4l1.008,-0.873l-1.747,-7.527Zm-0.135,-1.411l2.084,8.736l9.408,-8.803l-11.492,0.067Zm5.511,-4.704l6.115,4.301l-0.47,-9.072l-5.645,4.771Zm-0.202,-0.134l5.443,-4.57l-8.064,2.688l2.621,1.882Zm-0.134,0.134l-2.755,-1.949l-1.949,0.672l-0.135,1.277l3.293,1.277l1.546,-1.277Zm-4.704,-1.546l1.68,-0.537l-1.546,-1.143l-0.134,1.68Zm-0.269,0.068l0.134,-1.546l-1.68,2.083l1.546,-0.537Zm-0.47,6.048l-1.546,-5.175l-3.024,-1.411l-11.693,0.134l0.067,10.618l12.096,0l4.1,-4.166Zm-16.128,-6.72l11.356,-0.135l-4.569,-9.475l-6.787,9.61Zm-0.269,10.752l-0.067,-10.484l-9.543,2.218l9.61,8.266Zm-0.135,14.448l0.135,-13.978l-6.855,6.854l6.72,7.124Zm-7.19,-7.056l-7.056,-0.74l1.075,4.436l5.981,-3.696Zm-0.134,0.336l-5.78,3.628l0.672,2.823l5.108,-6.451Zm0.47,-0.202l-5.376,6.787l12.096,0.269l-6.72,-7.056Zm7.325,19.286l-0.471,-11.692l-7.19,12.566l7.661,-0.874Zm-7.661,1.076l1.949,4.771l5.577,-5.578l-7.526,0.807Zm1.747,4.972l-1.68,-4.233l0.672,5.241l1.008,-1.008Zm5.914,-5.577l-5.645,5.645l3.36,8.198l2.285,-13.843Zm13.776,-0.605l-13.306,0.336l8.467,6.854l4.839,-7.19Zm0.134,0.202l-4.771,7.056l5.578,-0.538l-0.807,-6.518Zm0.202,0.067l0.873,6.451l4.1,-0.403l-4.973,-6.048Zm2.553,-9.408l-2.486,8.87l12.768,-5.174l-10.282,-3.696Zm0.538,0l9.744,3.494l-2.554,-3.561l-7.19,0.067Zm-0.134,-0.202l7.19,-0.067l-1.882,-2.621l-5.308,2.688Zm-0.202,-0.134l5.376,-2.755l-2.621,-3.696l-2.755,6.451Zm3.091,-6.317l2.487,3.494l2.083,-1.075l-4.57,-2.419Zm2.352,-2.621l-1.344,1.21l1.613,-1.143l-0.269,-0.067Zm0.202,-0.201l0.269,0.134l1.478,-1.008l-0.806,0l-0.941,0.874Zm0.873,-1.076l-4.636,-0.537l0.067,0.201l1.411,0.538l3.158,-0.202Zm-4.838,-0.403l0,-0.134l-0.538,-0.067l0.538,0.201Zm-1.008,-0.47l0.941,0.067l-0.135,-0.403l-0.806,0.336Zm0.134,-0.336l0.672,-0.269l-0.067,-0.269l-0.605,0.538Zm0.74,-0.672l0.134,0.336l7.459,-3.159l1.882,-6.048l-9.475,8.871Zm0.336,-15.859l7.593,-2.554l-9.206,1.344l1.613,1.21Zm-2.084,-1.949l0.202,0.47l2.957,-6.182l-3.159,5.712Zm-0.067,0.672l-0.201,-0.202l-0.135,0.269l0.336,-0.067Zm-0.067,0.201l-0.403,0.135l-0.807,1.344l1.21,-1.479Zm-1.882,2.352l1.143,-2.15l-2.285,0.538l1.142,1.612Zm-0.336,-0.067l-1.075,-1.545l-1.411,0.336l2.486,1.209Zm-2.486,-1.411l1.277,-0.269l-0.403,-0.672l-0.874,0.941Zm-0.269,-0.067l1.008,-1.075l-1.142,-1.613l0.134,2.688Zm-0.201,-0.269l-0.202,-2.755l-3.696,-5.309l3.898,8.064Zm-11.559,0.336l6.72,-9.475l-7.392,0.672l0.672,8.803Zm-0.201,0l-0.672,-8.803l-5.914,0.537l6.586,8.266Zm-5.981,-8.534l5.309,-0.471l-0.135,-1.545l-5.174,2.016Zm5.913,8.803l-6.652,-8.4l-2.89,10.617l9.542,-2.217Zm0.068,10.886l-9.744,-8.4l-6.183,8.266l9.005,7.123l6.922,-6.989Zm-14.583,6.451l-1.277,-0.134l2.084,4.906l0.336,-0.202l-1.143,-4.57Zm1.21,4.772l-0.269,0.201l0.672,1.613l-0.403,-1.814Zm13.238,3.427l-12.23,-0.336l4.973,13.037l7.257,-12.701Zm-7.392,13.171l-2.822,2.285l3.561,3.494l-0.739,-5.779Zm-3.024,2.15l2.89,-2.284l-8.131,-2.89l5.241,5.174Zm3.696,3.831l-3.696,-3.562l-5.174,4.099l8.87,-0.537Zm1.411,-0.941l-1.008,1.075l4.032,6.317l-3.024,-7.392Zm6.048,-5.914l-2.352,14.112l10.887,-7.257l-8.535,-6.855Zm14.583,6.452l-5.578,0.537l6.451,6.451l-0.873,-6.988Zm0.201,0l0.874,6.921l3.293,-7.325l-4.167,0.404Zm-0.806,-6.989l5.107,6.317l7.661,-11.492l-12.768,5.175Zm10.483,-9.139l2.487,3.494l0.806,-3.562l-3.293,0.068Zm-0.134,-0.202l3.494,-0.067l0.403,-1.815l-3.628,-1.948l-2.218,1.075l1.949,2.755Zm4.099,-1.747l-0.403,1.68l3.494,0l-3.091,-1.68Zm0.067,-0.202l3.091,1.613l-2.62,-3.562l-0.471,1.949Zm-0.201,-0.134l0.47,-2.083l-0.941,-1.277l-3.024,1.478l3.495,1.882Zm-0.269,-3.495l0.806,1.143l0.403,-1.747l-1.209,0.604Zm-0.739,-0.94l1.411,0l-1.882,-0.74l0.471,0.74Zm-0.269,-0.068l-0.605,-0.806l-3.763,-1.411l-2.89,1.949l7.258,0.268Zm-4.167,-2.419l3.36,1.344l-1.747,-2.419l-1.613,1.075Zm0.874,-1.411l0.672,0.067l0.269,-1.008l-0.941,0.941Zm-0.336,-0.067l1.411,-1.277l0.941,-2.957l-7.392,3.091l0.134,0.605l4.906,0.538Zm2.621,-4.368l-0.874,2.822l5.04,-4.569l-4.166,1.747Zm0.067,-0.269l4.502,-1.882l-2.62,-4.099l-1.882,5.981Zm1.411,-15.792l0.067,0l-0.067,-0.47l0,0.47Zm-0.201,-0.336l0.067,-5.309l-2.554,1.815l2.487,3.494Zm-0.068,0.269l-2.62,-3.629l-7.527,5.174l10.147,-1.545Zm-10.281,1.411l7.526,-5.242l-2.957,-4.233l-4.569,9.475Zm-0.605,-0.605l4.57,-8.265l-5.578,6.115l1.008,2.15Zm-0.134,0.202l-1.008,-2.151l-0.807,0.807l1.747,1.478l0.068,-0.134Zm-0.202,0.336l-1.747,-1.479l-1.613,1.748l0.538,0.806l2.62,-0.605l0.202,-0.47Zm-3.494,0.134l1.612,-1.747l-3.091,-2.621l0.135,2.487l1.344,1.881Zm-1.546,-2.217l-0.134,-2.352l-3.696,-3.159l3.83,5.511Zm-4.166,-6.048l3.964,3.36l-0.201,-3.696l-3.763,0.336Zm0,-0.202l3.696,-0.336l-0.269,-4.166l-3.427,4.502Zm-7.863,0.672l6.653,-0.538l-6.787,-0.94l0.134,1.478Zm-6.182,0.538l5.712,-2.218l-5.107,-3.427l-0.605,5.645Zm-0.202,0l0.605,-5.578l-4.301,3.158l3.696,2.42Zm-0.201,0.134l-3.696,-2.419l-4.973,3.629l8.669,-1.21Zm0,0.202l-8.871,1.209l3.562,5.511l5.309,-6.72Zm0.067,0.336l-5.242,6.518l2.419,3.696l2.823,-10.214Zm-9.005,18.547l5.981,-7.93l-6.048,0.739l0.067,7.191Zm2.083,11.827l-2.083,-4.704l-0.202,6.048l2.285,-1.344Zm0.067,0.202l-2.217,1.344l3.293,1.142l-1.076,-2.486Zm6.25,15.859l-4.973,-12.903l-3.494,9.946l8.467,2.957Zm-3.091,2.688l-5.443,-5.309l0.134,9.475l5.309,-4.166Zm3.696,3.965l-8.938,0.537l0.067,6.183l8.871,-6.72Zm0.336,0l-9.005,6.854l13.574,0.269l-4.569,-7.123Zm15.993,-0.068l-10.819,7.191l17.405,-0.605l-6.586,-6.586Zm10.416,-0.94l-3.36,7.459l10.08,-3.427l-6.72,-4.032Zm7.863,-11.828l-7.594,11.424l12.835,-4.502l-5.241,-6.922Zm1.008,-4.032l-0.807,3.562l4.368,-3.562l-3.561,0Zm0.941,-4.368l2.553,3.495l-2.15,-5.242l-0.403,1.747Zm-2.42,-3.292l2.218,0.806l-3.763,-2.957l1.545,2.151Zm-1.545,-4.1l-0.269,0.941l4.166,-4.435l-3.897,3.494Zm3.024,-9.744l2.486,3.831l-1.209,-4.973l-1.277,1.142Zm0,-0.268l1.209,-1.143l-1.411,-5.913l0.202,7.056Zm-0.269,-8.132l1.68,6.788l2.621,-2.487l-4.301,-4.838l0,0.537Zm0,-0.873l4.099,4.637l-4.233,-10.148l0.134,5.511Zm-3.091,-4.301l2.553,-1.747l-5.443,-2.285l2.89,4.032Zm-9.408,2.419l5.913,-6.585l-8.601,0.806l2.688,5.779Zm-0.202,0.202l-2.755,-5.914l-1.546,0.135l0.269,3.897l3.226,2.755l0.806,-0.873Zm-4.301,-5.981l1.479,-0.202l-1.747,-3.628l0.268,3.83Zm-4.233,0.336l3.494,-4.57l-8.467,2.823l4.973,1.747Zm-1.008,-0.134l-4.301,-1.546l-2.016,0.672l6.317,0.874Zm-6.787,-0.941l2.15,-0.739l-6.787,-2.42l4.637,3.159Zm-10.08,-0.269l4.3,-3.158l-9.072,0l4.772,3.158Zm-0.202,0.134l-4.838,-3.225l-0.202,6.921l5.04,-3.696Zm-1.546,9.61l-3.561,-5.309l0,9.744l3.561,-4.435Zm0.135,0.202l-3.495,4.435l5.914,-0.739l-2.419,-3.696Zm-0.336,26.611l-3.495,-1.277l0.068,10.886l3.427,-9.609Zm39.446,22.646l6.048,-8.534l-12.835,4.502l6.787,4.032Zm6.183,-9.072l-0.471,-10.617l-4.704,3.763l5.175,6.854Zm-1.613,-28.358l1.344,-7.594l-2.554,2.419l1.21,5.175Zm-9.811,-21.773l-10.349,-3.226l1.881,4.032l8.468,-0.806Zm-11.29,-3.293l-15.725,0.135l7.325,2.62l8.4,-2.755Z" style="fill:#fff;fill-rule:nonzero;"/></svg>