<?xml version="1.0" encoding="UTF-8" standalone="no"?><!DOCTYPE svg PUBLIC "-//W3C//DTD SVG 1.1//EN" "http://www.w3.org/Graphics/SVG/1.1/DTD/svg11.dtd"><svg width="100%" height="100%" viewBox="0 0 223 35" version="1.1" xmlns="http://www.w3.org/2000/svg" xmlns:xlink="http://www.w3.org/1999/xlink" xml:space="preserve" style="fill-rule:evenodd;clip-rule:evenodd;stroke-linejoin:round;stroke-miterlimit:1.41421;"><path d="M1.928,23.886c-1.065,-1.775 -1.705,-3.521 -1.918,-5.238c0,-12.322 0,-18.472 0,-18.448l2.486,0l0,10.867c1.054,-1.291 2.231,-2.252 3.534,-2.886c1.302,-0.633 2.728,-0.95 4.279,-0.95c2.746,0 5.096,1.001 7.049,3.001c1.953,2 2.929,4.427 2.929,7.28c0,2.805 -0.982,5.202 -2.947,7.191c-1.965,1.989 -4.333,2.983 -7.102,2.983c-1.587,0 -3.075,-0.305 -4.466,-0.915c-1.391,-0.609 -2.672,-1.571 -3.844,-2.885l0,0Zm8.097,1.403c1.408,0 2.701,-0.346 3.879,-1.039c1.178,-0.692 2.116,-1.654 2.814,-2.885c0.699,-1.231 1.048,-2.545 1.048,-3.942c0,-1.373 -0.352,-2.69 -1.056,-3.951c-0.705,-1.26 -1.652,-2.237 -2.841,-2.929c-1.19,-0.693 -2.46,-1.039 -3.809,-1.039c-1.373,0 -2.675,0.346 -3.906,1.039c-1.231,0.692 -2.178,1.633 -2.841,2.823c-0.663,1.19 -0.994,2.518 -0.994,3.986c0,2.261 0.745,4.149 2.237,5.664c1.491,1.515 3.314,2.273 5.469,2.273l0,0Zm29.959,-4.546l2.095,1.119c-0.675,1.361 -1.468,2.456 -2.379,3.285c-0.912,0.828 -1.936,1.459 -3.072,1.891c-1.136,0.432 -2.421,0.648 -3.853,0.648c-3.172,0 -5.652,-1.039 -7.44,-3.116c-1.787,-2.078 -2.681,-4.424 -2.681,-7.04c0,-2.474 0.758,-4.676 2.273,-6.606c1.917,-2.462 4.492,-3.693 7.724,-3.693c3.302,0 5.948,1.261 7.936,3.782c1.409,1.776 2.119,3.989 2.131,6.641l-17.489,0c0.047,2.273 0.769,4.134 2.166,5.584c1.397,1.45 3.119,2.175 5.167,2.175c0.994,0 1.959,-0.174 2.894,-0.524c0.935,-0.349 1.731,-0.808 2.388,-1.376c0.657,-0.568 1.37,-1.491 2.14,-2.77l0,0Zm0,-5.238c-0.332,-1.337 -0.817,-2.405 -1.456,-3.204c-0.639,-0.799 -1.486,-1.445 -2.539,-1.936c-1.054,-0.491 -2.161,-0.737 -3.321,-0.737c-1.905,0 -3.545,0.616 -4.918,1.847c-0.994,0.9 -1.746,2.243 -2.255,4.03l14.489,0Zm14.884,-8.274c2.995,0 5.481,1.083 7.458,3.25c1.787,1.988 2.681,4.338 2.681,7.049c0,2.71 -0.947,5.081 -2.841,7.111c-1.894,2.03 -4.327,3.045 -7.298,3.045c-2.983,0 -5.418,-1.015 -7.306,-3.045c-1.888,-2.03 -2.832,-4.401 -2.832,-7.111c0,-2.699 0.893,-5.043 2.681,-7.032c1.977,-2.178 4.462,-3.267 7.457,-3.267l0,0Zm0,2.451c-2.071,0 -3.853,0.769 -5.344,2.308c-1.492,1.539 -2.237,3.397 -2.237,5.575c0,1.409 0.34,2.726 1.021,3.951c0.68,1.225 1.601,2.166 2.761,2.823c1.16,0.657 2.426,0.985 3.799,0.985c1.397,0 2.673,-0.328 3.827,-0.985c1.154,-0.657 2.068,-1.598 2.743,-2.823c0.675,-1.225 1.012,-2.542 1.012,-3.951c0,-2.178 -0.746,-4.036 -2.237,-5.575c-1.492,-1.539 -3.273,-2.308 -5.345,-2.308l0,0Zm12.079,9.073l0,-2.344c0.19,-1.172 0.462,-2.125 0.817,-2.859c0.829,-2.036 1.942,-3.527 3.338,-4.474c1.397,-0.947 2.557,-1.421 3.48,-1.421c0.687,0 1.421,0.225 2.202,0.675l-1.296,2.095c-1.101,-0.402 -2.193,-0.077 -3.276,0.977c-1.083,1.053 -1.832,2.202 -2.246,3.444c-0.308,1.101 -0.462,3.167 -0.462,6.197l0,6.588l-2.557,0l0,-8.878l0,0Zm29.551,4.492c0,2.734 -0.242,4.735 -0.728,6.001c-0.651,1.788 -1.79,3.164 -3.418,4.129c-1.627,0.964 -3.577,1.447 -5.85,1.447c-1.681,0 -3.184,-0.237 -4.51,-0.711c-1.326,-0.473 -2.409,-1.106 -3.249,-1.899c-0.841,-0.794 -1.61,-1.954 -2.309,-3.481l2.717,0c0.746,1.291 1.702,2.244 2.868,2.859c1.165,0.616 2.618,0.923 4.359,0.923c1.704,0 3.145,-0.319 4.323,-0.958c1.178,-0.64 2.015,-1.439 2.512,-2.397c0.498,-0.959 0.746,-2.516 0.746,-4.67l0,-0.994c-0.935,1.195 -2.086,2.112 -3.453,2.752c-1.367,0.639 -2.809,0.958 -4.324,0.958c-1.787,0 -3.471,-0.443 -5.051,-1.331c-1.581,-0.888 -2.8,-2.087 -3.658,-3.596c-0.858,-1.509 -1.287,-3.163 -1.287,-4.962c0,-1.8 0.447,-3.478 1.34,-5.034c0.894,-1.557 2.134,-2.788 3.72,-3.693c1.586,-0.906 3.249,-1.359 4.989,-1.359c1.468,0 2.8,0.225 3.996,0.675c1.006,0.367 2.195,1.071 3.568,2.113c1.16,0.959 2.072,2.788 2.735,5.486c-0.024,0.356 -0.036,2.936 -0.036,7.742l0,0Zm-9.943,-13.601c-1.42,0 -2.737,0.343 -3.951,1.03c-1.213,0.686 -2.166,1.633 -2.858,2.841c-0.693,1.207 -1.039,2.515 -1.039,3.924c0,2.142 0.716,3.912 2.149,5.309c1.432,1.397 3.284,2.095 5.557,2.095c2.32,0 4.179,-0.693 5.575,-2.077c1.397,-1.385 2.095,-3.208 2.095,-5.469c0,-1.468 -0.322,-2.776 -0.967,-3.924c-0.645,-1.148 -1.557,-2.057 -2.735,-2.726c-1.177,-0.669 -2.453,-1.003 -3.826,-1.003l0,0Zm22.75,-2.415c2.995,0 5.481,1.083 7.458,3.25c1.823,1.976 2.734,4.326 2.734,7.049c0.024,6.723 0.024,10.138 0,10.245l-2.645,0l0,-4.422c-1.385,2.581 -3.901,4.025 -7.547,4.333c-2.983,0 -5.418,-1.015 -7.306,-3.045c-1.888,-2.03 -2.832,-4.401 -2.832,-7.111c0,-2.699 0.894,-5.043 2.681,-7.032c1.977,-2.178 4.463,-3.267 7.457,-3.267l0,0Zm0,2.451c-2.071,0 -3.853,0.769 -5.344,2.308c-1.492,1.539 -2.237,3.397 -2.237,5.575c0,1.409 0.382,2.764 1.145,4.066c0.763,1.302 2.057,2.403 3.88,3.303c4.569,1.018 7.818,-1.06 9.747,-6.233c0.107,-1.657 -0.071,-3.243 -0.532,-4.758c-0.332,-0.687 -0.787,-1.338 -1.367,-1.953c-1.456,-1.539 -3.22,-2.308 -5.292,-2.308l0,0Zm13.323,10.6l-0.036,-2.078c-0.036,-1.018 0.006,-1.882 0.124,-2.592c0.261,-2.237 0.829,-3.877 1.705,-4.918c0.852,-0.912 1.722,-1.616 2.61,-2.113c1.468,-0.628 3.143,-0.924 5.025,-0.888c1.468,0 2.826,0.37 4.075,1.11c1.249,0.739 2.139,1.734 2.672,2.983c0.533,1.248 0.799,3.205 0.799,5.868l0,10.014l-2.486,0l0,-9.286c0,-2.249 -0.095,-3.753 -0.284,-4.51c-0.296,-1.29 -0.882,-2.205 -1.758,-2.743c-0.876,-0.539 -2.172,-0.808 -3.888,-0.808c-1.515,0 -2.865,0.438 -4.049,1.314c-1.183,0.876 -1.734,2.071 -1.651,3.586c-0.225,0.971 -0.337,2.741 -0.337,5.309l0,7.138l-2.521,0l0,-7.386l0,0Zm23.336,2.983c0.604,0 1.121,0.216 1.553,0.648c0.432,0.432 0.649,0.956 0.649,1.571c0,0.604 -0.217,1.122 -0.649,1.554c-0.432,0.432 -0.949,0.648 -1.553,0.648c-0.616,0 -1.137,-0.216 -1.563,-0.648c-0.426,-0.432 -0.639,-0.95 -0.639,-1.554c0,-0.615 0.213,-1.139 0.639,-1.571c0.426,-0.432 0.947,-0.648 1.563,-0.648Zm12.665,1.651c-1.231,0.663 -2.439,0.716 -3.622,0.16c-1.444,-1.101 -2.131,-2.67 -2.06,-4.705l0,-8.239l4.617,0l0,-2.149l-4.635,0l0,-9.41l-2.521,0l0,20.224c-0.024,1.42 0.302,2.722 0.977,3.906c1.112,1.882 2.627,2.876 4.545,2.983c1.018,0.035 2.178,-0.195 3.48,-0.693c-0.201,-0.497 -0.461,-1.189 -0.781,-2.077l0,0Zm19.448,-4.173l2.095,1.119c-0.675,1.361 -1.468,2.456 -2.379,3.285c-0.912,0.828 -1.936,1.459 -3.072,1.891c-1.136,0.432 -2.421,0.648 -3.853,0.648c-3.172,0 -5.652,-1.039 -7.44,-3.116c-1.787,-2.078 -2.681,-4.424 -2.681,-7.04c0,-2.474 0.758,-4.676 2.273,-6.606c1.918,-2.462 4.492,-3.693 7.724,-3.693c3.302,0 5.948,1.261 7.936,3.782c1.409,1.776 2.119,3.989 2.131,6.641l-17.489,0c0.047,2.273 0.769,4.134 2.166,5.584c1.397,1.45 3.119,2.175 5.167,2.175c0.994,0 1.959,-0.174 2.894,-0.524c0.935,-0.349 1.731,-0.808 2.388,-1.376c0.657,-0.568 1.37,-1.491 2.14,-2.77l0,0Zm0,-5.238c-0.332,-1.337 -0.817,-2.405 -1.456,-3.204c-0.639,-0.799 -1.486,-1.445 -2.539,-1.936c-1.054,-0.491 -2.161,-0.737 -3.321,-0.737c-1.905,0 -3.545,0.616 -4.918,1.847c-0.994,0.9 -1.746,2.243 -2.255,4.03l14.489,0Zm24.579,-3.728l-1.989,1.243c-1.716,-2.297 -4.06,-3.445 -7.031,-3.445c-2.379,0 -4.353,0.764 -5.921,2.291c-1.569,1.527 -2.353,3.385 -2.353,5.575c0,1.42 0.361,2.761 1.083,4.021c0.722,1.261 1.71,2.235 2.965,2.921c1.255,0.687 2.664,1.03 4.226,1.03c2.876,0 5.22,-1.136 7.031,-3.409l1.989,1.296c-0.935,1.397 -2.187,2.477 -3.755,3.241c-1.569,0.763 -3.359,1.145 -5.371,1.145c-3.066,0 -5.614,-0.977 -7.644,-2.93c-2.03,-1.953 -3.045,-4.326 -3.045,-7.12c0,-1.894 0.476,-3.649 1.429,-5.264c0.953,-1.616 2.255,-2.877 3.906,-3.782c1.651,-0.906 3.507,-1.359 5.567,-1.359c1.278,0 2.518,0.196 3.719,0.586c1.202,0.391 2.223,0.903 3.063,1.536c0.841,0.633 1.551,1.441 2.131,2.424l0,0Zm3.059,-11.08l2.522,0l0,11.026c1.006,-1.337 2.115,-2.337 3.329,-3c1.213,-0.663 2.53,-0.995 3.95,-0.995c1.468,0 2.764,0.37 3.889,1.11c1.124,0.74 1.953,1.731 2.486,2.974c0.532,1.243 0.799,3.202 0.799,5.877l0,10.015l-2.486,0l0,-9.287c0,-2.249 -0.095,-3.752 -0.284,-4.51c-0.308,-1.29 -0.87,-2.257 -1.687,-2.903c-0.817,-0.645 -1.888,-0.967 -3.214,-0.967c-1.515,0 -2.873,0.5 -4.075,1.5c-1.201,1 -1.991,2.24 -2.37,3.72c-0.225,0.947 -0.337,2.716 -0.337,5.309l0,7.138l-2.522,0l0,-27.007l0,0Z" style="fill:#fff;fill-rule:nonzero;"/></svg>