<svg id="SvgjsSvg1028" width="360" height="275" xmlns="http://www.w3.org/2000/svg" version="1.1" xmlns:xlink="http://www.w3.org/1999/xlink" xmlns:svgjs="http://svgjs.com/svgjs"><rect id="SvgjsRect1032" width="360" height="275" x="0" y="0" fill="#040002"></rect><defs id="SvgjsDefs1029"><!--?xml version="1.0"?-->
<svg width="159.7408px" height="130.64px" id="a1490992017778"><path fill="#ffffff" d="M20.0672,63.9072l-0.0672-11.6256l0.1344,0l-0.1344,0l0.2016-11.5584l-0.0672-9.072l0,0l0,0l0,0l0.1344,0l-0.1344,0l0-10.4832l0.1344,0l-0.1344,0l0.2016-7.3248l0.1344,0l0-0.0672l9.8112,0l17.136-0.2016l0,0.0672l11.088,3.4944l-0.0672,0.0672l0.0672-0.0672l5.9808,2.4864l0,0.0672l0.0672,0l4.7712,11.2224l-0.0672,0.0672l0.0672,0l-1.4784,8.5344l-0.0672-0.0672l0.0672,0.1344l-6.2496,6.5856l4.8384,3.8304l-0.0672,0.0672l0.1344,0l2.5536,6.384l-0.1344,0l0.1344,0l0.4704,11.1552l-0.0672,0l0.0672,0.0672l-6.3168,8.9376l-0.0672-0.0672l0.0672,0.0672l-10.4832,3.5616l0,0.0672l-18.2784,0.5376l0,0l-14.0448-0.2688l0-0.1344l-0.1344,0l-0.0672-6.5184l0,0l-0.1344-9.9456l0.1344,0l-0.1344,0z M64.688,50.8032l-0.5376-0.672l-7.2576-0.2688l4.704,2.4864z M64.4864,50.1312l0.4032,0.6048l1.0752-0.5376z M20.5376,39.5136l1.4784,6.1152l7.1232,0.7392z M21.7472,45.5616l-1.2768-5.376l0,5.2416z M58.9088,47.376l-1.9488-0.7392l-1.1424,0.0672l0.672,2.8224z M57.4976,46.5696l1.5456,0.6048l0.8736-0.7392z M36.5312,54.0288l0.5376,11.9616l13.6416-0.336l2.5536-9.0048l-8.4-2.5536z M53.264,30.7104l-1.68-0.672l1.344,4.5024z M51.7856,29.904l1.4784,0.5376l0.0672-1.0752z M64.352,35.0112l-7.5264-2.9568l-3.5616,3.024z M57.0272,31.92l7.056,2.7552l-5.6448-3.9648z M45.4016,53.2896l4.5024-4.3008l-0.7392-1.7472z M50.0384,49.1904l-4.704,4.5024l5.712-2.1504z M53.3312,45.7632l-0.0672-0.0672l-3.2928,1.1424l2.352-0.1344z M49.3664,46.8384l3.7632-1.344l-2.352-3.2256z M49.3664,47.2416l0.7392,1.6128l1.008-1.008z M49.7024,47.1072l1.6128,0.6048l0.7392-0.8064z M52.4576,46.9056l-0.9408,0.8736l2.1504,0.8064l0.0672-1.7472z M54.0032,46.8384l-0.1344,1.8144l2.2176,0.8064l-1.9488-2.688z M53.7344,46.6368l0.0672-0.336l-0.336-0.4032l-0.8064,0.8064z M53.6,45.7632l0.2016,0.2016l0-0.336z M53.3984,45.4272l0.336-0.1344l-2.8224-3.2928l0,0.0672z M50.7104,41.7984l-0.1344-0.2016z M50.6432,42.0672l-1.68-2.2848l0.2688,6.6528z M44.7968,53.8272l4.032-6.5184l-11.9616,6.4512z M51.1808,51.744l-5.9808,2.2176l7.9968,2.4864z M51.3824,51.6768l1.9488,4.4352l0.2016-5.2416z M51.248,51.4752l2.352-0.8064l0.0672-1.8816l-2.352-0.8736l-1.1424,1.1424z M53.8688,48.9216l-0.0672,1.6128l2.2848-0.8064z M55.4144,48.1824l-0.8064-1.4112l-0.2016,0z M54.8768,46.7712l1.2768,2.2176l-0.5376-2.2848z M54.2048,46.5696l0.2688,0l-0.4704-0.8736l0,0.5376z M50.9792,41.7312l2.8224,3.2928l-0.8736-9.3408z M53.1296,34.8768l3.4272-2.8896l-3.0912-1.2096z M50.7776,41.5296l1.9488-5.9808l-3.7632,3.8304z M48.6944,39.5136l-11.6928,0l12.0288,7.3248z M48.9632,47.04l-12.2976-7.4592l-0.1344,14.112z M53.8016,50.8032l-0.2688,5.2416l2.688-6.1152z M55.7504,46.5024l0.7392-0.0672l-0.8064-0.336z M55.5488,46.5024l-0.1344-0.4704l-1.2096-0.4704l0.5376,1.008z M53.264,36.6912l0.7392,8.4l1.008-0.8736z M53.1296,35.28l2.0832,8.736l9.408-8.8032z M58.64,30.576l6.1152,4.3008l-0.4704-9.072z M58.4384,30.4416l5.4432-4.5696l-8.064,2.688z M58.304,30.576l-2.7552-1.9488l-1.9488,0.672l-0.1344,1.2768l3.2928,1.2768z M53.6,29.0304l1.68-0.5376l-1.5456-1.1424z M53.3312,29.0976l0.1344-1.5456l-1.68,2.0832z M52.8608,35.1456l-1.5456-5.1744l-3.024-1.4112l-11.6928,0.1344l0.0672,10.6176l12.096,0z M36.7328,28.4256l11.3568-0.1344l-4.5696-9.4752z M36.464,39.1776l-0.0672-10.4832l-9.5424,2.2176z M36.3296,53.6256l0.1344-13.9776l-6.8544,6.8544z M29.1392,46.5696l-7.056-0.7392l1.0752,4.4352z M29.0048,46.9056l-5.7792,3.6288l0.672,2.8224z M29.4752,46.704l-5.376,6.7872l12.096,0.2688z M36.8,65.9904l-0.4704-11.6928l-7.1904,12.5664z M29.1392,67.0656l1.9488,4.7712l5.5776-5.5776z M30.8864,72.0384l-1.68-4.2336l0.672,5.2416z M36.8,66.4608l-5.6448,5.6448l3.36,8.1984z M50.576,65.856l-13.3056,0.336l8.4672,6.8544z M50.7104,66.0576l-4.7712,7.056l5.5776-0.5376z M50.912,66.1248l0.8736,6.4512l4.0992-0.4032z M53.4656,56.7168l-2.4864,8.8704l12.768-5.1744z M54.0032,56.7168l9.744,3.4944l-2.5536-3.5616z M53.8688,56.5152l7.1904-0.0672l-1.8816-2.6208z M53.6672,56.3808l5.376-2.7552l-2.6208-3.696z M56.7584,50.064l2.4864,3.4944l2.0832-1.0752z M59.1104,47.4432l-1.344,1.2096l1.6128-1.1424z M59.312,47.2416l0.2688,0.1344l1.4784-1.008l-0.8064,0z M60.1856,46.1664l-4.6368-0.5376l0.0672,0.2016l1.4112,0.5376z M55.3472,45.7632l0-0.1344l-0.5376-0.0672z M54.3392,45.2928l0.9408,0.0672l-0.1344-0.4032z M54.4736,44.9568l0.672-0.2688l-0.0672-0.2688z M55.2128,44.2848l0.1344,0.336l7.4592-3.1584l1.8816-6.048z M55.5488,28.4256l7.5936-2.5536l-9.2064,1.344z M53.3312,26.7456l0,0l0,0z M53.4656,26.4768l0.2016,0.4704l2.9568-6.1824z M53.3984,27.1488l-0.2016-0.2016l-0.1344,0.2688z M53.3312,27.3504l-0.4032,0.1344l-0.8064,1.344z M51.4496,29.7024l1.1424-2.1504l-2.2848,0.5376z M51.1136,29.6352l-1.0752-1.5456l-1.4112,0.336z M48.6272,28.224l1.2768-0.2688l-0.4032-0.672z M48.3584,28.1568l1.008-1.0752l-1.1424-1.6128z M48.1568,27.888l-0.2016-2.7552l-3.696-5.3088z M36.5984,28.224l6.72-9.4752l-7.392,0.672z M36.3968,28.224l-0.672-8.8032l-5.9136,0.5376z M30.416,19.6896l5.3088-0.4704l-0.1344-1.5456z M36.3296,28.4928l-6.6528-8.4l-2.8896,10.6176z M36.3968,39.3792l-9.744-8.4l-6.1824,8.2656l9.0048,7.1232z M21.8144,45.8304l-1.2768-0.1344l2.0832,4.9056l0.336-0.2016z M23.024,50.6016l-0.2688,0.2016l0.672,1.6128z M36.2624,54.0288l-12.2304-0.336l4.9728,13.0368z M28.8704,67.2l-2.8224,2.2848l3.5616,3.4944z M25.8464,69.3504l2.8896-2.2848l-8.1312-2.8896z M29.5424,73.1808l-3.696-3.5616l-5.1744,4.0992z M30.9536,72.24l-1.008,1.0752l4.032,6.3168z M37.0016,66.3264l-2.352,14.112l10.8864-7.2576z M51.584,72.7776l-5.5776,0.5376l6.4512,6.4512z M51.7856,72.7776l0.8736,6.9216l3.2928-7.3248z M50.9792,65.7888l5.1072,6.3168l7.6608-11.4912z M61.4624,56.6496l2.4864,3.4944l0.8064-3.5616z M61.328,56.448l3.4944-0.0672l0.4032-1.8144l-3.6288-1.9488l-2.2176,1.0752z M65.4272,54.7008l-0.4032,1.68l3.4944,0z M65.4944,54.4992l3.0912,1.6128l-2.6208-3.5616z M65.2928,54.3648l0.4704-2.0832l-0.9408-1.2768l-3.024,1.4784z M65.024,50.8704l0.8064,1.1424l0.4032-1.7472z M64.2848,49.9296l1.4112,0l-1.8816-0.7392z M64.016,49.8624l-0.6048-0.8064l-3.7632-1.4112l-2.8896,1.9488z M59.8496,47.4432l3.36,1.344l-1.7472-2.4192z M60.7232,46.032l0.672,0.0672l0.2688-1.008z M60.3872,45.9648l1.4112-1.2768l0.9408-2.9568l-7.392,3.0912l0.1344,0.6048z M63.008,41.5968l-0.8736,2.8224l5.04-4.5696z M63.0752,41.328l4.5024-1.8816l-2.6208-4.0992z M64.4864,25.536l0.0672,0l-0.0672-0.4704l0,0.4704z M64.2848,25.2l0.0672-5.3088l-2.5536,1.8144z M64.2176,25.4688l-2.6208-3.6288l-7.5264,5.1744z M53.936,26.88l7.5264-5.2416l-2.9568-4.2336z M53.3312,26.2752l4.5696-8.2656l-5.5776,6.1152z M53.1968,26.4768l-1.008-2.1504l-0.8064,0.8064l1.7472,1.4784z M52.9952,26.8128l-1.7472-1.4784l-1.6128,1.7472l0.5376,0.8064l2.6208-0.6048z M49.5008,26.9472l1.6128-1.7472l-3.0912-2.6208l0.1344,2.4864z M47.9552,24.7296l-0.1344-2.352l-3.696-3.1584z M43.7888,18.6816l3.9648,3.36l-0.2016-3.696z M43.7888,18.48l3.696-0.336l-0.2688-4.1664z M35.9264,19.152l6.6528-0.5376l-6.7872-0.9408z M29.744,19.6896l5.712-2.2176l-5.1072-3.4272z M29.5424,19.6896l0.6048-5.5776l-4.3008,3.1584z M29.3408,19.824l-3.696-2.4192l-4.9728,3.6288z M29.3408,20.0256l-8.8704,1.2096l3.5616,5.5104z M29.408,20.3616l-5.2416,6.5184l2.4192,3.696z M20.4032,38.9088l5.9808-7.9296l-6.048,0.7392z M22.4864,50.736l-2.0832-4.704l-0.2016,6.048z M22.5536,50.9376l-2.2176,1.344l3.2928,1.1424z M28.8032,66.7968l-4.9728-12.9024l-3.4944,9.9456z M25.712,69.4848l-5.4432-5.3088l0.1344,9.4752z M29.408,73.4496l-8.9376,0.5376l0.0672,6.1824z M29.744,73.4496l-9.0048,6.8544l13.5744,0.2688z M45.7376,73.3824l-10.8192,7.1904l17.4048-0.6048z M56.1536,72.4416l-3.36,7.4592l10.08-3.4272z M64.016,60.6144l-7.5936,11.424l12.8352-4.5024z M65.024,56.5824l-0.8064,3.5616l4.368-3.5616l-3.5616,0z M65.9648,52.2144l2.5536,3.4944l-2.1504-5.2416z M63.5456,48.9216l2.2176,0.8064l-3.7632-2.9568z M62,44.8224l-0.2688,0.9408l4.1664-4.4352z M65.024,35.0784l2.4864,3.8304l-1.2096-4.9728z M65.024,34.8096l1.2096-1.1424l-1.4112-5.9136z M64.7552,26.6784l1.68,6.7872l2.6208-2.4864l-4.3008-4.8384l0,0.5376z M64.7552,25.8048l4.0992,4.6368l-4.2336-10.1472z M61.664,21.504l2.5536-1.7472l-5.4432-2.2848z M52.256,23.9232l5.9136-6.5856l-8.6016,0.8064z M52.0544,24.1248l-2.7552-5.9136l-1.5456,0.1344l0.2688,3.8976l3.2256,2.7552z M47.7536,18.144l1.4784-0.2016l-1.7472-3.6288z M43.52,18.48l3.4944-4.5696l-8.4672,2.8224z M42.512,18.3456l-4.3008-1.5456l-2.016,0.672z M35.7248,17.4048l2.1504-0.7392l-6.7872-2.4192z M25.6448,17.136l4.3008-3.1584l-9.072,0z M25.4432,17.2704l-4.8384-3.2256l-0.2016,6.9216z M23.8976,26.88l-3.5616-5.3088l0,9.744z M24.032,27.0816l-3.4944,4.4352l5.9136-0.7392z M23.696,53.6928l-3.4944-1.2768l0.0672,10.8864z M63.1424,76.3392l6.048-8.5344l-12.8352,4.5024z M69.3248,67.2672l-0.4704-10.6176l-4.704,3.7632z M67.712,38.9088l1.344-7.5936l-2.5536,2.4192z M57.9008,17.136l-10.3488-3.2256l1.8816,4.032z M46.6112,13.8432l-15.7248,0.1344l7.3248,2.6208z"></path></svg>
<!--?xml version="1.0"?-->
<svg width="725.95170454545px" height="243.60795454545px" id="t1490992017778"><path fill="#ffffff" d="M24.350142045455,38.813920454545q-1.5980113636363-2.6633522727272-1.9176136363636-5.2379261363636q0-18.483664772727,0-18.448153409091l2.4857954545454,0l0,10.866477272727q1.5802556818182-1.9353693181818,3.5333806818181-2.8852982954545t4.2791193181818-0.94992897727272q4.1193181818181,0,7.0490056818181,3.0007102272727t2.9296875,7.2798295454545q0,4.208096590909-2.9474431818182,7.1910511363636t-7.1022727272727,2.9829545454545q-2.3792613636363,0-4.4655539772727-0.91441761363635t-3.8441051136363-2.8852982954545z M32.446732954545,40.216619318181q2.1129261363636,0,3.8796164772727-1.0387073863636t2.8142755681818-2.8852982954545t1.0475852272727-3.9417613636363q0-2.0596590909091-1.0564630681818-3.9506392045454t-2.8409090909091-2.9296875t-3.80859375-1.0387073863636q-2.0596590909091,0-3.90625,1.0387073863636t-2.8409090909091,2.8231534090909t-0.99431818181817,3.9861505681818q0,3.3913352272727,2.2372159090909,5.6640624999999t5.4687499999999,2.2727272727272z M62.405894886363,35.671164772727l2.0951704545454,1.1186079545454q-1.0120738636364,2.0419034090909-2.3792613636363,3.2848011363636t-3.0717329545454,1.8909801136363t-3.8529829545454,0.64808238636363q-4.7585227272727,0-7.4396306818181-3.1161221590909t-2.6811079545454-7.040127840909q0-3.7109375,2.2727272727272-6.6051136363636q2.8764204545454-3.6931818181818,7.723721590909-3.6931818181818q4.9538352272727,0,7.9367897727272,3.7819602272727q2.1129261363636,2.6633522727272,2.1306818181818,6.6406249999999l-17.489346590909,0q0.071022727272727,3.4090909090909,2.1661931818182,5.5841619318181t5.1669034090909,2.1750710227273q1.4914772727273,0,2.8941761363636-0.52379261363636t2.3881392045454-1.3760653409091t2.1395596590909-2.7698863636363z M62.405894886363,30.433238636363q-0.49715909090909-2.0063920454545-1.4559659090909-3.2049005681818t-2.5390625-1.9353693181818t-3.3203125-0.73686079545454q-2.8586647727272,0-4.9183238636363,1.8465909090909q-1.4914772727273,1.3494318181818-2.2549715909091,4.0305397727272l14.488636363636,0z M77.290482954545,22.159090909091q4.4921875,0,7.4573863636363,3.2492897727272q2.6811079545454,2.9829545454545,2.6811079545454,7.0490056818181t-2.8409090909091,7.1111505681817t-7.2975852272727,3.0450994318182q-4.4744318181818,0-7.3064630681817-3.0450994318182t-2.83203125-7.1111505681817q0-4.0482954545454,2.6811079545454-7.0312499999999q2.9651988636363-3.2670454545454,7.4573863636363-3.2670454545454z M77.290482954545,24.609375q-3.1072443181818,0-5.3444602272727,2.3082386363636t-2.2372159090909,5.575284090909q0,2.1129261363636,1.0209517045454,3.9506392045454t2.7610085227272,2.8231534090909t3.7997159090909,0.98544034090908q2.0951704545454,0,3.8263494318181-0.98544034090908t2.7432528409091-2.8231534090909t1.0120738636364-3.9506392045454q0-3.2670454545454-2.2372159090909-5.575284090909t-5.3444602272727-2.3082386363636z M89.369673295454,33.682528409091l0-2.34375q0.28409090909091-1.7578125,0.81676136363636-2.8586647727272q1.2428977272727-3.0539772727272,3.3380681818181-4.4744318181818t3.4801136363636-1.4204545454545q1.0298295454545,0,2.2017045454545,0.6747159090909l-1.2961647727273,2.0951704545454q-1.6512784090909-0.60369318181818-3.2759232954545,0.97656249999999t-2.24609375,3.4446022727272q-0.46164772727272,1.6512784090909-0.46164772727272,6.1967329545454l0,6.5873579545454l-2.5568181818182,0l0-8.8778409090908z M118.92045454545,38.174715909091q0,4.1015625-0.72798295454545,6.0014204545454q-0.97656249999999,2.6811079545454-3.41796875,4.1281960227272t-5.8504971590909,1.4470880681818q-2.5213068181818,0-4.5099431818181-0.71022727272727t-3.2492897727272-1.8998579545454t-2.3082386363636-3.4801136363636l2.7166193181818,0q1.1186079545454,1.9353693181818,2.8675426136363,2.8586647727272t4.3590198863636,0.92329545454545q2.5568181818182,0,4.3235085227272-0.95880681818181t2.5124289772727-2.3970170454545t0.74573863636363-4.6697443181818l0-0.99431818181817q-1.4026988636363,1.7933238636363-3.4534801136363,2.7521306818182t-4.3235085227272,0.95880681818181q-2.6811079545454,0-5.0514914772727-1.3316761363636t-3.6576704545454-3.5955255681818t-1.2872869318182-4.9627130681818t1.3405539772727-5.0337357954545t3.7198153409091-3.6931818181818t4.989346590909-1.3583096590909q2.2017045454545,0,3.9950284090909,0.6747159090909q1.5092329545454,0.55042613636363,3.5688920454545,2.1129261363636q1.7400568181818,1.4382102272727,2.734375,5.4865056818181q-0.035511363636363,0.53267045454545-0.035511363636363,7.7414772727272z M108.97727272727,24.573863636363q-2.1306818181818,0-3.9506392045454,1.0298295454545t-2.8586647727272,2.8409090909091t-1.0387073863636,3.9240056818181q0,3.2137784090909,2.1484375,5.3089488636363t5.5575284090909,2.0951704545454q3.4801136363636,0,5.575284090909-2.0774147727273t2.0951704545454-5.4687499999999q0-2.2017045454545-0.9676846590909-3.9240056818181t-2.734375-2.7254971590909t-3.8263494318181-1.0031960227273z M131.72762784091,22.159090909091q4.4921875,0,7.4573863636363,3.2492897727272q2.734375,2.9651988636363,2.734375,7.0490056818181q0.035511363636363,10.085227272727,0,10.245028409091l-2.6455965909091,0l0-4.4211647727272q-2.0774147727273,3.8707386363636-7.5461647727272,4.3323863636363q-4.4744318181818,0-7.3064630681817-3.0450994318182t-2.83203125-7.1111505681817q0-4.0482954545454,2.6811079545454-7.0312499999999q2.9651988636363-3.2670454545454,7.4573863636363-3.2670454545454z M131.72762784091,24.609375q-3.1072443181818,0-5.3444602272727,2.3082386363636t-2.2372159090909,5.575284090909q0,2.1129261363636,1.1452414772727,4.0660511363636t3.8796164772727,3.3025568181818q6.8536931818181,1.5269886363636,9.7478693181817-6.2322443181818q0.15980113636363-2.4857954545454-0.53267045454545-4.7585227272727q-0.49715909090909-1.0298295454545-1.3671875-1.953125q-2.1839488636363-2.3082386363636-5.2911931818181-2.3082386363636z M145.04971590909,35.209517045454l-0.035511363636363-2.0774147727273q-0.053267045454545-1.5269886363636,0.12428977272727-2.5923295454545q0.390625-3.3558238636363,1.7045454545454-4.9183238636363q1.2784090909091-1.3671875,2.6100852272727-2.1129261363636q2.2017045454545-0.94105113636363,5.0248579545454-0.88778409090908q2.2017045454545,0,4.0749289772727,1.1097301136364t2.6722301136363,2.9829545454545t0.79900568181817,5.868252840909l0,10.014204545454l-2.4857954545454,0l0-9.286221590909q0-3.3735795454545-0.28409090909091-4.5099431818181q-0.44389204545454-1.9353693181818-1.7578125-2.7432528409091t-3.8884943181818-0.80788352272726q-2.2727272727272,0-4.0482954545454,1.3139204545454t-1.6512784090909,3.5866477272727q-0.33735795454545,1.4559659090909-0.33735795454545,5.3089488636363l0,7.137784090909l-2.5213068181818,0l0-7.3863636363636z M168.38600852273,38.192471590909q0.90553977272726,0,1.5536221590909,0.64808238636363t0.64808238636363,1.5713778409091q0,0.90553977272726-0.64808238636363,1.5536221590909t-1.5536221590909,0.64808238636363q-0.92329545454545,0-1.5625-0.64808238636363t-0.63920454545454-1.5536221590909q0-0.92329545454545,0.63920454545454-1.5713778409091t1.5625-0.64808238636363z M181.05113636363,39.84375q-1.8465909090909,0.99431818181817-3.6221590909091,0.15980113636363q-2.1661931818182-1.6512784090909-2.0596590909091-4.7052556818181l0-8.2386363636363l4.6164772727272,0l0-2.1484375l-4.6342329545454,0l0-9.4105113636363l-2.5213068181818,0l0,20.223721590909q-0.035511363636363,2.1306818181818,0.97656249999999,3.90625q1.6690340909091,2.8231534090909,4.5454545454545,2.9829545454545q1.5269886363636,0.053267045454545,3.4801136363636-0.69247159090908q-0.30184659090909-0.74573863636363-0.78124999999999-2.0774147727273z M200.49893465909,35.671164772727l2.0951704545454,1.1186079545454q-1.0120738636364,2.0419034090909-2.3792613636363,3.2848011363636t-3.0717329545454,1.8909801136363t-3.8529829545454,0.64808238636363q-4.7585227272727,0-7.4396306818181-3.1161221590909t-2.6811079545454-7.040127840909q0-3.7109375,2.2727272727272-6.6051136363636q2.8764204545454-3.6931818181818,7.723721590909-3.6931818181818q4.9538352272727,0,7.9367897727272,3.7819602272727q2.1129261363636,2.6633522727272,2.1306818181818,6.6406249999999l-17.489346590909,0q0.071022727272727,3.4090909090909,2.1661931818182,5.5841619318181t5.1669034090909,2.1750710227273q1.4914772727273,0,2.8941761363636-0.52379261363636t2.3881392045454-1.3760653409091t2.1395596590909-2.7698863636363z M200.49893465909,30.433238636363q-0.49715909090909-2.0063920454545-1.4559659090909-3.2049005681818t-2.5390625-1.9353693181818t-3.3203125-0.73686079545454q-2.8586647727272,0-4.9183238636363,1.8465909090909q-1.4914772727273,1.3494318181818-2.2549715909091,4.0305397727272l14.488636363636,0z M225.078125,26.704545454545l-1.9886363636363,1.2428977272727q-2.5745738636363-3.4446022727272-7.0312499999999-3.4446022727272q-3.5688920454545,0-5.9215198863636,2.2904829545454t-2.3526278409091,5.575284090909q0,2.1306818181818,1.0830965909091,4.0216619318181t2.9651988636363,2.9208096590909t4.2258522727272,1.0298295454545q4.3146306818181,0,7.0312499999999-3.4090909090909l1.9886363636363,1.2961647727273q-1.4026988636363,2.0951704545454-3.7553267045454,3.2404119318181t-5.3710937499999,1.1452414772727q-4.598721590909,0-7.6438210227272-2.9296875t-3.0450994318182-7.1200284090908q0-2.8409090909091,1.4293323863636-5.2645596590909t3.90625-3.7819602272727t5.5664062499999-1.3583096590909q1.9176136363636,0,3.7198153409091,0.58593749999999t3.0628551136363,1.5358664772727t2.1306818181818,2.4236505681818z M228.13742897727,15.625l2.5213068181818,0l0,11.026278409091q1.5092329545454-2.0063920454545,3.3291903409091-3.0007102272727t3.9506392045454-0.99431818181817q2.2017045454545,0,3.8884943181818,1.1097301136364t2.4857954545454,2.9740767045454t0.79900568181817,5.8771306818181l0,10.014204545454l-2.4857954545454,0l0-9.286221590909q0-3.3735795454545-0.28409090909091-4.5099431818181q-0.46164772727272-1.9353693181818-1.6867897727273-2.9030539772727t-3.2137784090909-0.9676846590909q-2.2727272727272,0-4.0749289772727,1.5003551136363t-2.3703835227272,3.7198153409091q-0.33735795454545,1.4204545454545-0.33735795454545,5.3089488636363l0,7.137784090909l-2.5213068181818,0l0-27.006392045454z"></path></svg>
</defs><use id="SvgjsUse1030" xlink:href="#t1490992017778" fill="#ffffff" x="46.22780418395996" y="143.17220211029053"></use><use id="SvgjsUse1031" xlink:href="#a1490992017778" fill="#ffffff" x="135.2368049621582" y="67.50196933746338"></use></svg>